<svg xmlns="http://www.w3.org/2000/svg" width="959" height="288" viewBox="0 0 959 288">
    <g fill="none" fill-rule="evenodd">
        <g>
            <g>
                <path fill="#000" fill-rule="nonzero" d="M577.12 61.69c-8.203-9.956-20.157-15.447-33.682-15.447-6.901-.053-13.722 1.487-19.93 4.5-8.99-3.991-18.736-6-28.572-5.887-25.748 0-47.724 10.82-63.47 31.333l-.079.064c-4.638 6.039-8.53 12.615-11.593 19.587-3.208-11.69-9.494-22.306-18.203-30.74-13.822-13.38-31.792-20.216-53.329-20.216-10.062-.112-20.05 1.734-29.407 5.435-6.007-2.7-12.523-4.08-19.11-4.048-13.531 0-25.528 5.491-33.695 15.447-2.81 3.355-5.1 7.112-6.794 11.145-.644-1.372-1.267-2.752-2.06-4.097 12.233-19.05 8.128-44.257-9.517-58.443-17.645-14.187-43.15-12.785-59.135 3.25v.056c-5.051 4.92-8.797 11.023-10.899 17.754-2.783-6.457-7.168-12.098-12.74-16.389-8.563-6.588-19.271-10.062-30.963-10.062H46.839c-11.387-.087-22.356 4.284-30.56 12.178C7.635 25.232 2.8 36.607 2.95 48.465c0 12.737 5.096 24.059 14.396 31.984 8.09 6.885 18.338 10.515 29.527 10.515h9.201c-9.618 13.445-45.82 63.947-45.82 63.947-2 2.864-3.74 5.9-5.202 9.072 0 .085-.113.375-.113.375-2.813 6.31-4.313 13.125-4.41 20.033 0 13.883 5.882 26.075 16.498 34.241 8.557 6.645 19.251 10.183 30.83 10.183h93.692c10.999.045 21.627-3.972 29.846-11.28 3.518-2.973 6.507-6.52 8.84-10.493 1.46 2.76 3.193 5.368 5.173 7.783 8.16 9.907 20.135 15.384 33.66 15.384 13.526 0 25.48-5.477 33.64-15.384 2.733-3.283 4.979-6.944 6.667-10.869 1.704 3.912 3.94 7.57 6.646 10.87 8.167 9.906 20.121 15.383 33.66 15.383 13.54 0 25.48-5.477 33.689-15.419 2.226-2.754 4.119-5.761 5.64-8.958 1.5 3.191 3.38 6.19 5.6 8.93 8.195 9.942 20.156 15.419 33.667 15.419 13.51 0 25.479-5.477 33.674-15.384 5.99-7.362 9.646-16.342 10.503-25.793 1.804 3.548 3.847 6.97 6.115 10.24 2.416 3.385 5.088 6.581 7.99 9.56-12.441 7.486-20.956 21.688-20.956 36.583 0 22.85 18.501 42.146 40.342 42.146h38.41c27.27 0 49.457-7.48 66.011-22.22 20.235-18.164 27.482-50.006 27.482-73.747V92.57c.022-11.725-3.715-22.381-10.73-30.88zm-.205 129.876c0 21.412-6.236 49.852-23.76 65.589-14.523 12.907-34.29 19.445-58.778 19.445h-38.41c-15.96 0-29.484-14.28-29.484-31.213 0-13.253 8.903-25.814 21.232-29.932 1.889-.591 3.28-2.2 3.595-4.154.084-.335.125-.68.12-1.026-.007-1.605-.715-3.127-1.939-4.167-4.56-3.812-8.58-8.228-11.946-13.127-8.182-11.541-13.065-25.368-14.863-41.162-.488-4.358-.736-8.74-.743-13.126.007-4.007.255-8.01.743-11.987 1.883-16.424 7.693-31.135 17.375-43.816v-.056c13.646-17.69 32.642-27.038 54.85-27.038 9.86 0 18.7 1.967 26.23 5.753 1.618.818 3.539.772 5.117-.12 5.254-2.878 11.166-4.34 17.156-4.246 10.213 0 19.166 4.054 25.238 11.428 5.429 6.552 8.238 14.86 8.238 23.966l.029 98.989zm-165.132-7.713c0 9.128-2.831 17.421-8.281 24.002-6.058 7.345-14.997 11.386-25.238 11.386-10.242 0-19.173-4.04-25.246-11.428-5.407-6.539-8.266-14.86-8.266-23.96v-59.907l-.12-2.045c-.142-2.83-2.28-4.656-5.096-4.805l-.779-.056c-2.973-.113-5.195 1.684-5.379 4.649l-.198 2.257v59.907c0 9.142-2.831 17.421-8.203 23.96-6.08 7.387-15.075 11.428-25.288 11.428-10.213 0-19.201-4.04-25.224-11.386-5.435-6.58-8.288-14.86-8.288-24.002V92.57c0-9.156 2.831-17.414 8.281-23.952 6.108-7.388 15.047-11.443 25.267-11.443 5.7-.089 11.335 1.228 16.405 3.836 1.503.788 3.284.845 4.834.155 7.785-3.538 17.029-5.377 27.298-5.377 18.621 0 34.022 5.76 45.707 17.13 11.798 11.486 17.814 26.742 17.814 45.373v7.749c-.487 4.2-.74 8.424-.758 12.652.016 4.548.269 9.092.758 13.614v31.546zm-192.706 35.38c-10.241 0-19.195-4.04-25.253-11.385-4.45-5.474-7.212-12.125-7.948-19.14.07-.963.128-1.975.128-2.966-.011-2.156-.16-4.309-.446-6.446V92.57c-.06-7.906 2.366-15.631 6.936-22.084 1.393-1.86 1.427-4.408.085-6.305-4.024-5.604-6.163-12.342-6.108-19.24-.067-8.896 3.454-17.443 9.767-23.712h.035c12.404-12.704 32.576-13.497 45.94-1.807 13.363 11.69 15.256 31.785 4.31 45.764-1.415 1.866-1.489 4.424-.184 6.368 4.145 6.21 6.325 13.523 6.257 20.988v91.283c0 9.142-2.888 17.478-8.302 24.002-6.094 7.373-15.061 11.414-25.217 11.414v-.007zm-44.171-30.087c-.814 7.837-4.616 15.059-10.616 20.167-6.267 5.556-14.364 8.605-22.74 8.563H47.837c-9.144 0-17.475-2.718-24.163-7.87-7.877-6.106-12.201-15.178-12.201-25.615.078-5.42 1.248-10.767 3.44-15.723l.155-.27c1.132-2.51 2.501-4.905 4.09-7.153 0 .05 52-72.524 52-72.524 1.173-1.675 1.323-3.863.388-5.683-.935-1.82-2.802-2.971-4.848-2.992h-19.86c-8.549 0-16.334-2.725-22.449-7.954-6.816-5.732-10.56-14.152-10.56-23.627-.123-8.864 3.486-17.37 9.944-23.444 6.19-5.964 14.47-9.267 23.066-9.2h87.117c9.285 0 17.693 2.69 24.275 7.785 7.786 5.994 12.117 15.115 12.117 25.672 0 8.64-2.76 16.934-8.203 24.604.043 0-51.297 71.06-51.297 71.06-1.183 1.661-1.344 3.843-.418 5.66.923 1.826 2.795 2.975 4.841 2.972h26.279c18.253 0 30.652 10.105 33.08 26.182.297 1.958.455 3.935.474 5.916-.002 1.16-.068 2.32-.198 3.474zm6.83-121.83c-4.64 7.606-7.09 16.345-7.078 25.254v63.268c-7.884-8.236-19.385-13.098-33.08-13.098H125.98c9.597-13.374 45.105-62.44 45.105-62.44 3.779-5.34 6.61-11.29 8.373-17.591.674 1.576 1.435 3.114 2.279 4.607z" opacity=".2" transform="translate(-71 -371) translate(71 371)"/>
                <path fill="#EE2B74" d="M455.967 260.226c-7.134 0-13.079-7.126-13.079-14.86 0-7.734 6.993-14.817 12.74-14.817h38.742c8.74 0 18.684-2.428 23.985-7.19 5.301-4.762 7.963-18.454 7.963-27.073v-8.06c-7.743 10.685-19.475 16.04-35.197 16.063-17.274 0-30.669-6.895-40.186-20.684-8.431-11.864-12.638-26.835-12.619-44.912 0-17.738 4.921-33.01 14.764-45.818 10.611-13.799 24.563-20.698 41.856-20.698 14.41 0 24.906 5.215 31.389 15.567 2.045-9.482 7.785-14.23 17.12-14.23 5.379 0 9.597 1.847 12.584 5.498 2.987 3.652 4.508 8.195 4.508 13.558v98.996c0 19.948-6.115 42.407-18.28 53.361-11.608 10.282-27.603 15.299-47.887 15.299h-38.403zm70.358-121.073c0-9.305-2.124-17.308-6.427-23.91-4.897-7.7-11.826-11.598-20.708-11.598-8.38 0-15.083 3.693-19.966 11.159-4.438 6.602-6.653 14.287-6.653 22.955 0 9.298 2.038 17.188 6.179 23.677 4.77 7.548 11.583 11.322 20.44 11.322 8.882 0 15.81-3.539 20.708-10.615 4.285-6.151 6.427-13.815 6.427-22.99z" transform="translate(-71 -371) translate(71 371)"/>
                <path fill="#F47B20" d="M282.576 183.853V92.57c0-5.392 1.507-9.901 4.522-13.53 3.001-3.65 7.198-5.497 12.627-5.497 8.875 0 14.112 4.153 15.726 12.355 6.78-9.122 17.694-13.728 32.811-13.728 14.287 0 25.715 4.146 34.283 12.44 8.55 8.357 12.867 19.587 12.867 33.682v65.561c0 5.413-1.543 9.907-4.536 13.58-2.994 3.672-7.212 5.455-12.612 5.455s-9.527-1.805-12.591-5.463c-3.065-3.658-4.516-8.194-4.516-13.58v-59.899c0-7.076-1.981-12.8-5.824-16.983-3.844-4.182-9.435-6.326-16.583-6.326-6.83 0-12.216 2.208-16.101 6.595-3.886 4.387-5.846 9.907-5.846 16.714v59.907c0 5.385-1.472 9.907-4.537 13.58-3.065 3.672-7.19 5.455-12.577 5.455-5.386 0-9.611-1.805-12.59-5.456-2.98-3.651-4.523-8.194-4.523-13.579" transform="translate(-71 -371) translate(71 371)"/>
                <path fill="#49A942" d="M201.935 183.853V92.57c0-5.392 1.48-9.906 4.515-13.53 3.037-3.622 7.191-5.497 12.627-5.497 5.435 0 9.568 1.846 12.57 5.498 3 3.651 4.536 8.137 4.536 13.53v91.282c0 5.385-1.522 9.907-4.537 13.58-3.015 3.672-7.212 5.455-12.57 5.455-5.357 0-9.582-1.805-12.626-5.463-3.043-3.658-4.515-8.194-4.515-13.58m.906-138.911c.033-8.137 5.806-15.118 13.793-16.68 7.986-1.563 15.965 2.729 19.063 10.253 3.098 7.523.453 16.187-6.319 20.7-6.772 4.512-15.788 3.617-21.54-2.138-3.276-3.178-5.085-7.573-4.997-12.135" transform="translate(-71 -371) translate(71 371)"/>
                <path fill="#009DDC" d="M72.58 170.012h68.97c11.43 0 17.142 5.3 17.142 15.737.049 4.343-1.859 8.478-5.195 11.259-3.291 2.922-7.546 4.524-11.947 4.5H47.837c-5.573 0-10.29-1.5-14.155-4.5-3.893-3.029-5.804-7.24-5.804-12.617.062-3.203.785-6.36 2.123-9.27.75-1.573 1.626-3.083 2.62-4.515l76.606-106.92H46.846c-4.72 0-8.698-1.33-11.869-4.07-3.17-2.738-4.749-6.403-4.749-11.123-.124-4.385 1.66-8.608 4.89-11.577 3.12-3.079 7.345-4.775 11.728-4.705h87.117c5.662 0 10.496 1.479 14.268 4.422 3.772 2.944 5.697 7.154 5.697 12.737 0 5.244-1.72 10.268-5.166 15.193L72.58 170.012z" transform="translate(-71 -371) translate(71 371)"/>
                <path fill="#808184" d="M700.12 144.785c0-6.604-1.734-11.793-5.202-15.567-3.468-3.774-8.321-5.68-14.559-5.718-6.233 0-11.057 1.906-14.473 5.718-3.416 3.812-5.122 9-5.117 15.567v51.656c0 2.538-.692 4.532-2.074 5.98-3.135 2.888-7.962 2.888-11.098 0-1.415-1.415-2.08-3.44-2.08-5.98v-77.993c0-2.54.707-4.536 2.08-5.98 3.136-2.888 7.963-2.888 11.098 0 1.382 1.444 2.074 3.437 2.074 5.98v2.767l.354.346c.943-1.15 2.01-2.391 3.199-3.722 1.347-1.43 2.897-2.656 4.6-3.637 2.047-1.18 4.228-2.112 6.497-2.774 2.905-.805 5.911-1.183 8.925-1.125 4.687.04 9.297 1.198 13.447 3.376 4.45 2.255 8.408 6.328 11.876 12.22 3.052-4.565 7.004-8.458 11.614-11.442 4.388-2.774 9.935-4.158 16.64-4.154 3.74.024 7.455.637 11.005 1.819 3.82 1.247 7.337 3.285 10.319 5.98 3.304 3.029 5.932 6.72 7.714 10.833 2.015 4.444 3.025 9.902 3.03 16.374v51.125c0 2.538-.694 4.532-2.081 5.98-3.133 2.887-7.958 2.887-11.09 0-1.388-1.444-2.081-3.437-2.081-5.98v-51.656c0-6.604-1.734-11.793-5.202-15.567-3.468-3.774-8.321-5.68-14.559-5.718-6.242 0-11.067 1.906-14.473 5.718-3.407 3.812-5.113 9-5.117 15.567v51.656c0 2.538-.694 4.532-2.081 5.98-3.133 2.887-7.958 2.887-11.09 0-1.388-1.444-2.081-3.437-2.081-5.98l-.014-51.649zM790.775 118.448c0-2.538.691-4.531 2.074-5.98 3.135-2.888 7.962-2.888 11.097 0 1.416 1.444 2.112 3.437 2.088 5.98v4.5h.34c4.388-8.43 12.593-12.645 24.615-12.645 5.786-.11 11.506 1.23 16.64 3.9 4.828 2.573 9.052 6.146 12.392 10.48 3.473 4.511 6.088 9.622 7.715 15.078 3.478 11.538 3.478 23.844 0 35.381-1.622 5.458-4.238 10.57-7.715 15.08-3.34 4.335-7.564 7.91-12.392 10.486-5.135 2.667-10.855 4.008-16.64 3.9-2.841.022-5.672-.357-8.408-1.126-2.453-.689-4.812-1.68-7.02-2.95-1.958-1.12-3.764-2.488-5.372-4.07-1.372-1.354-2.647-2.803-3.815-4.337h-.34v40.68c0 2.541-.708 4.53-2.088 5.98-3.135 2.888-7.962 2.888-11.097 0-1.416-1.45-2.074-3.439-2.074-5.98V118.449zm15.23 38.99c.006 3.99.428 7.97 1.26 11.873.784 3.849 2.205 7.539 4.205 10.919 1.886 3.217 4.469 5.97 7.558 8.06 3.086 2.08 6.925 3.118 11.516 3.113 4.477 0 8.287-1.038 11.43-3.113 3.128-2.07 5.742-4.827 7.643-8.06 1.997-3.381 3.418-7.071 4.204-10.919 1.68-7.826 1.68-15.92 0-23.747-.785-3.846-2.206-7.533-4.204-10.912-1.899-3.234-4.514-5.991-7.643-8.06-3.133-2.08-6.943-3.12-11.43-3.12-4.596 0-8.434 1.04-11.516 3.12-3.09 2.088-5.674 4.842-7.558 8.06-2.001 3.377-3.422 7.065-4.204 10.912-.832 3.903-1.254 7.883-1.26 11.874zM958.915 167.146c.091 5.409-.943 10.778-3.036 15.766-1.916 4.461-4.786 8.449-8.408 11.683-3.659 3.218-7.892 5.718-12.478 7.366-4.95 1.768-10.173 2.647-15.429 2.597-6.473 0-11.963-1.04-16.47-3.12-4.157-1.84-7.944-4.423-11.174-7.622-2.726-2.676-4.906-5.855-6.42-9.362-1.185-2.622-1.86-5.446-1.989-8.321 0-2.654.602-4.734 1.82-6.241 1.085-1.439 2.79-2.274 4.593-2.25 2.314 0 4.07.665 5.287 1.988 1.45 1.766 2.54 3.8 3.206 5.986 1.404 4.25 3.835 8.088 7.077 11.174 3.237 3.066 7.802 4.6 13.695 4.6 3.24.044 6.453-.578 9.441-1.827 2.755-1.16 5.26-2.841 7.375-4.953 2.08-2.082 3.727-4.554 4.848-7.274 1.16-2.802 1.75-5.806 1.734-8.838 0-4.623-.578-8.41-1.734-11.358-.974-2.68-2.579-5.088-4.678-7.02-1.966-1.732-4.313-2.978-6.85-3.636-2.688-.703-5.455-1.05-8.232-1.033-3.008 0-5.315-.616-6.929-1.826-1.56-1.081-2.474-2.872-2.435-4.77-.057-1.59.616-3.12 1.826-4.153 1.218-1.043 3.268-1.852 6.15-2.427 6.243-1.387 10.693-3.64 13.349-6.758 2.656-3.118 3.987-7.51 3.992-13.176 0-5.887-1.59-10.71-4.77-14.47-3.18-3.76-7.427-5.647-12.74-5.661-2.648-.072-5.28.43-7.715 1.471-2.04.912-3.848 2.274-5.286 3.984-1.408 1.716-2.468 3.69-3.122 5.81-.706 2.197-1.18 4.462-1.415 6.758-.04 1.407-.365 2.79-.956 4.068-.413.87-1.08 1.595-1.91 2.08-.7.388-1.462.651-2.251.78-.716.115-1.44.174-2.166.176-1.904.12-3.763-.61-5.074-1.995-1.212-1.39-1.861-3.182-1.82-5.025-.018-4.057.716-8.083 2.166-11.873 1.401-3.705 3.556-7.078 6.328-9.907 2.923-2.935 6.399-5.26 10.227-6.843 4.34-1.792 9-2.678 13.695-2.604 4.573-.073 9.114.782 13.348 2.512 3.796 1.588 7.219 3.95 10.05 6.935 2.783 2.958 4.96 6.432 6.412 10.225 1.507 3.895 2.273 8.037 2.258 12.214.015 5.138-1.237 10.2-3.645 14.74-2.524 4.733-6.29 8.691-10.892 11.448 6.935 2.076 12.194 5.829 15.775 11.259 3.622 5.564 5.496 12.085 5.38 18.723" transform="translate(-71 -371) translate(71 371)"/>
            </g>
        </g>
    </g>
</svg>